<svg width="1218" height="238" viewBox="0 0 1218 238" fill="none" xmlns="http://www.w3.org/2000/svg">
<g style="mix-blend-mode:darken">
<path d="M108.287 41.3975C89.9436 41.3975 75.7408 48.3154 65.6783 62.1514C55.6158 75.8825 50.5846 95.0641 50.5846 119.696C50.5846 170.952 69.8186 196.58 108.287 196.58C124.429 196.58 143.977 192.545 166.932 184.474V225.353C148.065 233.214 126.997 237.145 103.727 237.145C70.2903 237.145 44.7148 227.03 27.0006 206.8C9.28642 186.465 0.429321 157.326 0.429321 119.382C0.429321 95.4834 4.77926 74.5723 13.4791 56.6484C22.179 38.6198 34.6523 24.8363 50.899 15.2979C67.2506 5.65462 86.3798 0.833008 108.287 0.833008C130.613 0.833008 153.044 6.23112 175.58 17.0273L159.857 56.6484C151.262 52.5605 142.615 48.9967 133.915 45.957C125.215 42.9173 116.672 41.3975 108.287 41.3975ZM226.27 145.796C226.27 163.196 229.1 176.35 234.76 185.26C240.525 194.169 249.854 198.624 262.746 198.624C275.534 198.624 284.705 194.222 290.261 185.417C295.921 176.507 298.751 163.3 298.751 145.796C298.751 128.396 295.921 115.346 290.261 106.646C284.601 97.9466 275.324 93.5967 262.432 93.5967C249.644 93.5967 240.42 97.9466 234.76 106.646C229.1 115.242 226.27 128.291 226.27 145.796ZM347.806 145.796C347.806 174.411 340.259 196.79 325.165 212.932C310.071 229.074 289.055 237.145 262.117 237.145C245.242 237.145 230.357 233.476 217.465 226.139C204.572 218.697 194.667 208.058 187.749 194.222C180.831 180.386 177.372 164.244 177.372 145.796C177.372 117.076 184.867 94.7497 199.855 78.8174C214.844 62.8851 235.913 54.9189 263.061 54.9189C279.936 54.9189 294.82 58.5876 307.713 65.9248C320.605 73.262 330.511 83.7962 337.429 97.5273C344.347 111.258 347.806 127.348 347.806 145.796ZM525.535 234H477.581V131.331C477.581 118.648 475.327 109.162 470.82 102.873C466.313 96.4792 459.133 93.2822 449.28 93.2822C435.863 93.2822 426.167 97.7894 420.193 106.804C414.218 115.713 411.231 130.545 411.231 151.299V234H363.277V58.2207H399.911L406.357 80.7041H409.03C414.375 72.2139 421.713 65.82 431.041 61.5225C440.475 57.1201 451.166 54.9189 463.116 54.9189C483.555 54.9189 499.068 60.4743 509.655 71.585C520.241 82.5908 525.535 98.5231 525.535 119.382V234ZM624.807 198.938C633.193 198.938 643.255 197.104 654.995 193.436V229.126C643.046 234.472 628.371 237.145 610.971 237.145C591.79 237.145 577.797 232.323 568.992 222.68C560.292 212.932 555.942 198.362 555.942 178.971V94.2256H532.987V73.9434L559.401 57.9062L573.237 20.8008H603.896V58.2207H653.108V94.2256H603.896V178.971C603.896 185.784 605.783 190.815 609.556 194.064C613.435 197.314 618.518 198.938 624.807 198.938ZM778.166 234L768.89 210.102H767.632C759.561 220.269 751.228 227.344 742.633 231.327C734.143 235.205 723.032 237.145 709.301 237.145C692.425 237.145 679.114 232.323 669.365 222.68C659.722 213.036 654.901 199.305 654.901 181.486C654.901 162.829 661.399 149.098 674.397 140.293C687.499 131.383 707.205 126.457 733.514 125.514L764.016 124.57V116.866C764.016 99.0472 754.897 90.1377 736.658 90.1377C722.613 90.1377 706.104 94.3828 687.132 102.873L671.252 70.4844C691.482 59.8978 713.913 54.6045 738.545 54.6045C762.129 54.6045 780.21 59.7406 792.788 70.0127C805.366 80.2848 811.656 95.9027 811.656 116.866V234H778.166ZM764.016 152.557L745.463 153.186C731.522 153.605 721.145 156.12 714.332 160.732C707.519 165.344 704.113 172.367 704.113 181.801C704.113 195.322 711.869 202.083 727.382 202.083C738.493 202.083 747.35 198.886 753.953 192.492C760.662 186.098 764.016 177.608 764.016 167.021V152.557ZM908.413 237.145C853.698 237.145 826.34 207.114 826.34 147.054C826.34 117.181 833.783 94.3828 848.667 78.6602C863.551 62.8327 884.881 54.9189 912.658 54.9189C932.992 54.9189 951.231 58.902 967.373 66.8682L953.222 103.974C945.675 100.934 938.653 98.4707 932.154 96.584C925.655 94.5924 919.157 93.5967 912.658 93.5967C887.711 93.5967 875.238 111.311 875.238 146.739C875.238 181.119 887.711 198.31 912.658 198.31C921.882 198.31 930.424 197.104 938.286 194.693C946.147 192.178 954.008 188.299 961.87 183.059V224.095C954.113 229.021 946.252 232.428 938.286 234.314C930.424 236.201 920.467 237.145 908.413 237.145ZM1052.65 198.938C1061.04 198.938 1071.1 197.104 1082.84 193.436V229.126C1070.89 234.472 1056.22 237.145 1038.82 237.145C1019.63 237.145 1005.64 232.323 996.837 222.68C988.137 212.932 983.787 198.362 983.787 178.971V94.2256H960.832V73.9434L987.246 57.9062L1001.08 20.8008H1031.74V58.2207H1080.95V94.2256H1031.74V178.971C1031.74 185.784 1033.63 190.815 1037.4 194.064C1041.28 197.314 1046.36 198.938 1052.65 198.938ZM1217.02 181.801C1217.02 199.829 1210.73 213.561 1198.15 222.994C1185.68 232.428 1166.97 237.145 1142.02 237.145C1129.23 237.145 1118.33 236.254 1109.32 234.472C1100.3 232.795 1091.86 230.279 1084 226.925V187.304C1092.91 191.496 1102.92 195.008 1114.03 197.838C1125.25 200.668 1135.1 202.083 1143.59 202.083C1160.99 202.083 1169.69 197.052 1169.69 186.989C1169.69 183.216 1168.54 180.176 1166.23 177.87C1163.93 175.459 1159.94 172.786 1154.28 169.852C1148.62 166.812 1141.08 163.3 1131.64 159.317C1118.12 153.657 1108.16 148.416 1101.77 143.595C1095.48 138.773 1090.87 133.27 1087.93 127.086C1085.1 120.797 1083.69 113.093 1083.69 103.974C1083.69 88.3558 1089.72 76.3018 1101.77 67.8115C1113.93 59.2165 1131.12 54.9189 1153.34 54.9189C1174.51 54.9189 1195.11 59.5309 1215.13 68.7549L1200.67 103.345C1191.86 99.5713 1183.63 96.4792 1175.98 94.0684C1168.33 91.6576 1160.52 90.4521 1152.55 90.4521C1138.4 90.4521 1131.33 94.278 1131.33 101.93C1131.33 106.227 1133.58 109.948 1138.09 113.093C1142.7 116.237 1152.71 120.902 1168.12 127.086C1181.85 132.641 1191.91 137.83 1198.31 142.651C1204.7 147.473 1209.42 153.028 1212.46 159.317C1215.5 165.606 1217.02 173.101 1217.02 181.801Z" fill="#AAF0D1" fill-opacity="0.13"/>
</g>
</svg>
