<svg width="1440" height="344" viewBox="0 0 1440 344" fill="none" xmlns="http://www.w3.org/2000/svg">
<g style="mix-blend-mode:darken">
<path d="M31.0345 261H-109.984V16.1436H31.0345V58.6836H-58.0651V112.445H24.8377V154.985H-58.0651V218.125H31.0345V261ZM90.892 165.369L30.599 73.7568H88.5473L124.891 133.38L161.569 73.7568H219.517L158.554 165.369L222.364 261H164.248L124.891 196.855L85.3651 261H27.4169L90.892 165.369ZM327.944 264.35C305.948 264.35 288.698 256.366 276.192 240.4H273.513C275.299 256.031 276.192 265.075 276.192 267.532V343.4H225.111V73.7568H266.646L273.848 98.0415H276.192C288.139 79.507 305.836 70.2397 329.284 70.2397C351.391 70.2397 368.697 78.7812 381.203 95.8643C393.708 112.947 399.96 136.674 399.96 167.043C399.96 187.029 397.002 204.392 391.084 219.13C385.278 233.868 376.96 245.089 366.129 252.793C355.299 260.498 342.57 264.35 327.944 264.35ZM312.871 111.105C300.254 111.105 291.042 115.013 285.236 122.829C279.43 130.533 276.416 143.317 276.192 161.182V166.708C276.192 186.806 279.151 201.209 285.069 209.918C291.098 218.627 300.589 222.982 313.541 222.982C336.43 222.982 347.874 204.112 347.874 166.374C347.874 147.951 345.027 134.161 339.333 125.006C333.75 115.739 324.929 111.105 312.871 111.105ZM493.984 106.583C483.154 106.583 474.668 110.044 468.527 116.967C462.386 123.778 458.869 133.492 457.976 146.108H529.657C529.434 133.492 526.14 123.778 519.776 116.967C513.412 110.044 504.814 106.583 493.984 106.583ZM501.186 264.35C471.039 264.35 447.48 256.031 430.509 239.395C413.538 222.759 405.052 199.2 405.052 168.718C405.052 137.344 412.868 113.115 428.499 96.0317C444.242 78.8371 465.959 70.2397 493.649 70.2397C520.111 70.2397 540.711 77.7764 555.449 92.8496C570.188 107.923 577.557 128.746 577.557 155.32V180.107H456.803C457.362 194.622 461.66 205.955 469.699 214.105C477.738 222.256 489.015 226.332 503.53 226.332C514.807 226.332 525.47 225.159 535.519 222.814C545.568 220.47 556.063 216.729 567.005 211.593V251.119C558.073 255.585 548.527 258.879 538.366 261C528.206 263.233 515.812 264.35 501.186 264.35ZM697.875 70.2397C704.797 70.2397 710.547 70.7422 715.125 71.7471L711.273 119.646C707.142 118.53 702.118 117.972 696.2 117.972C679.898 117.972 667.17 122.159 658.014 130.533C648.97 138.907 644.448 150.63 644.448 165.704V261H593.367V73.7568H632.055L639.591 105.243H642.104C647.91 94.7477 655.725 86.3179 665.551 79.9536C675.488 73.4777 686.263 70.2397 697.875 70.2397ZM721.221 25.355C721.221 8.71859 730.489 0.400391 749.023 0.400391C767.558 0.400391 776.825 8.71859 776.825 25.355C776.825 33.2824 774.48 39.4792 769.791 43.9453C765.213 48.2998 758.291 50.4771 749.023 50.4771C730.489 50.4771 721.221 42.103 721.221 25.355ZM774.48 261H723.399V73.7568H774.48V261ZM880.06 106.583C869.23 106.583 860.744 110.044 854.603 116.967C848.462 123.778 844.945 133.492 844.052 146.108H915.733C915.51 133.492 912.216 123.778 905.852 116.967C899.488 110.044 890.89 106.583 880.06 106.583ZM887.262 264.35C857.115 264.35 833.556 256.031 816.585 239.395C799.614 222.759 791.128 199.2 791.128 168.718C791.128 137.344 798.944 113.115 814.575 96.0317C830.318 78.8371 852.035 70.2397 879.725 70.2397C906.187 70.2397 926.787 77.7764 941.525 92.8496C956.264 107.923 963.633 128.746 963.633 155.32V180.107H842.879C843.438 194.622 847.736 205.955 855.775 214.105C863.814 222.256 875.091 226.332 889.606 226.332C900.883 226.332 911.546 225.159 921.595 222.814C931.644 220.47 942.139 216.729 953.081 211.593V251.119C944.149 255.585 934.603 258.879 924.442 261C914.282 263.233 901.888 264.35 887.262 264.35ZM1152.28 261H1101.2V151.635C1101.2 138.125 1098.8 128.021 1094 121.321C1089.2 114.51 1081.55 111.105 1071.05 111.105C1056.76 111.105 1046.44 115.906 1040.07 125.508C1033.71 134.999 1030.52 150.798 1030.52 172.905V261H979.443V73.7568H1018.47L1025.33 97.7065H1028.18C1033.87 88.6626 1041.69 81.8517 1051.63 77.2739C1061.68 72.5845 1073.06 70.2397 1085.79 70.2397C1107.57 70.2397 1124.09 76.1574 1135.37 87.9927C1146.64 99.7163 1152.28 116.688 1152.28 138.907V261ZM1255.18 264.35C1196.9 264.35 1167.76 232.361 1167.76 168.383C1167.76 136.562 1175.69 112.277 1191.54 95.5293C1207.39 78.6696 1230.12 70.2397 1259.7 70.2397C1281.37 70.2397 1300.79 74.4826 1317.99 82.9683L1302.91 122.494C1294.88 119.256 1287.39 116.632 1280.47 114.622C1273.55 112.501 1266.63 111.44 1259.7 111.44C1233.13 111.44 1219.84 130.309 1219.84 168.048C1219.84 204.671 1233.13 222.982 1259.7 222.982C1269.53 222.982 1278.63 221.698 1287 219.13C1295.38 216.45 1303.75 212.319 1312.13 206.736V250.449C1303.86 255.696 1295.49 259.325 1287 261.335C1278.63 263.345 1268.02 264.35 1255.18 264.35ZM1407.49 106.583C1396.66 106.583 1388.17 110.044 1382.03 116.967C1375.89 123.778 1372.37 133.492 1371.48 146.108H1443.16C1442.94 133.492 1439.65 123.778 1433.28 116.967C1426.92 110.044 1418.32 106.583 1407.49 106.583ZM1414.69 264.35C1384.54 264.35 1360.99 256.031 1344.01 239.395C1327.04 222.759 1318.56 199.2 1318.56 168.718C1318.56 137.344 1326.37 113.115 1342 96.0317C1357.75 78.8371 1379.46 70.2397 1407.15 70.2397C1433.62 70.2397 1454.22 77.7764 1468.95 92.8496C1483.69 107.923 1491.06 128.746 1491.06 155.32V180.107H1370.31C1370.87 194.622 1375.17 205.955 1383.2 214.105C1391.24 222.256 1402.52 226.332 1417.04 226.332C1428.31 226.332 1438.98 225.159 1449.02 222.814C1459.07 220.47 1469.57 216.729 1480.51 211.593V251.119C1471.58 255.585 1462.03 258.879 1451.87 261C1441.71 263.233 1429.32 264.35 1414.69 264.35Z" fill="#AFACF2" fill-opacity="0.07"/>
</g>
</svg>
