<svg width="397" height="397" viewBox="0 0 397 397" fill="none" xmlns="http://www.w3.org/2000/svg">
<g filter="url(#filter0_d)">
<rect width="377" height="377" fill="white"/>
</g>
<path d="M54.216 138.966H67.846V178.634C67.846 182.394 67.6893 185.496 67.376 187.94C67.1253 190.447 66.53 192.828 65.59 195.084C64.7127 197.403 63.428 199.22 61.736 200.536C60.1067 201.915 57.9133 203.043 55.156 203.92C52.4613 204.86 49.14 205.487 45.192 205.8L37.39 194.144C44.0953 193.58 48.5447 192.797 50.738 191.794C52.994 190.791 54.1533 188.567 54.216 185.12C52.0853 187.125 48.8893 188.128 44.628 188.128C38.5493 188.128 33.6927 185.966 30.058 181.642C26.486 177.318 24.7 171.083 24.7 162.936C24.7 155.291 26.5173 149.212 30.152 144.7C33.8493 140.125 38.6747 137.838 44.628 137.838C48.764 137.838 51.96 138.903 54.216 141.034V138.966ZM54.216 172.054V154.1C54.1533 154.037 53.9027 153.818 53.464 153.442C53.088 153.003 52.7433 152.69 52.43 152.502C52.1793 152.314 51.772 152.095 51.208 151.844C50.644 151.531 49.986 151.311 49.234 151.186C48.482 151.061 47.636 150.998 46.696 150.998C44.064 150.998 41.996 152.032 40.492 154.1C39.0507 156.168 38.33 159.113 38.33 162.936C38.33 170.957 41.1187 174.968 46.696 174.968C50.0173 174.968 52.524 173.997 54.216 172.054ZM93.9765 188.128C86.8952 188.128 81.3179 185.903 77.2445 181.454C73.1712 177.005 71.1345 170.832 71.1345 162.936C71.1345 155.228 73.1712 149.118 77.2445 144.606C81.3805 140.094 86.9579 137.838 93.9765 137.838C100.369 137.838 105.57 139.781 109.581 143.666C113.591 147.551 115.597 153.191 115.597 160.586C115.597 163.657 115.471 166.007 115.221 167.636H84.4825C84.6079 170.644 85.5479 172.9 87.3025 174.404C89.0572 175.845 91.2819 176.566 93.9765 176.566C98.3632 176.566 101.967 174.874 104.787 171.49L112.683 179.386C107.857 185.214 101.622 188.128 93.9765 188.128ZM84.5765 157.39H102.531C101.841 152.063 98.8019 149.4 93.4125 149.4C90.9685 149.4 88.9632 150.121 87.3965 151.562C85.8299 152.941 84.8899 154.883 84.5765 157.39ZM132.651 188.128C124.567 188.128 120.525 183.741 120.525 174.968V150.904H113.945V138.966H120.525V125.618L134.061 119.132V138.966H144.495V150.904H134.061V173.652C134.061 174.529 134.312 175.219 134.813 175.72C135.377 176.159 136.035 176.378 136.787 176.378C139.544 176.378 142.302 175.751 145.059 174.498L143.555 185.966C140.61 187.407 136.975 188.128 132.651 188.128ZM174.334 138.966H187.964V178.634C187.964 182.394 187.807 185.496 187.494 187.94C187.243 190.447 186.648 192.828 185.708 195.084C184.831 197.403 183.546 199.22 181.854 200.536C180.225 201.915 178.031 203.043 175.274 203.92C172.579 204.86 169.258 205.487 165.31 205.8L157.508 194.144C164.213 193.58 168.663 192.797 170.856 191.794C173.112 190.791 174.271 188.567 174.334 185.12C172.203 187.125 169.007 188.128 164.746 188.128C158.667 188.128 153.811 185.966 150.176 181.642C146.604 177.318 144.818 171.083 144.818 162.936C144.818 155.291 146.635 149.212 150.27 144.7C153.967 140.125 158.793 137.838 164.746 137.838C168.882 137.838 172.078 138.903 174.334 141.034V138.966ZM174.334 172.054V154.1C174.271 154.037 174.021 153.818 173.582 153.442C173.206 153.003 172.861 152.69 172.548 152.502C172.297 152.314 171.89 152.095 171.326 151.844C170.762 151.531 170.104 151.311 169.352 151.186C168.6 151.061 167.754 150.998 166.814 150.998C164.182 150.998 162.114 152.032 160.61 154.1C159.169 156.168 158.448 159.113 158.448 162.936C158.448 170.957 161.237 174.968 166.814 174.968C170.135 174.968 172.642 173.997 174.334 172.054ZM193.603 187V138.966H207.233V143.29C207.859 142.037 208.987 140.815 210.617 139.624C212.246 138.433 214.157 137.838 216.351 137.838C220.111 137.838 223.275 139.185 225.845 141.88L224.059 154.288C221.427 152.095 218.575 150.998 215.505 150.998C209.99 150.998 207.233 154.319 207.233 160.962V187H193.603ZM243.35 188.128C236.457 188.128 231.005 185.903 226.994 181.454C223.046 177.005 221.072 170.863 221.072 163.03C221.072 155.259 223.077 149.118 227.088 144.606C231.099 140.094 236.519 137.838 243.35 137.838C250.118 137.838 255.476 140.094 259.424 144.606C263.435 149.118 265.44 155.259 265.44 163.03C265.44 170.863 263.466 177.005 259.518 181.454C255.57 185.903 250.181 188.128 243.35 188.128ZM243.35 174.968C246.045 174.968 248.113 173.934 249.554 171.866C251.058 169.735 251.81 166.79 251.81 163.03C251.81 159.27 251.058 156.325 249.554 154.194C248.113 152.063 246.045 150.998 243.35 150.998C240.718 150.998 238.619 152.063 237.052 154.194C235.485 156.325 234.702 159.27 234.702 163.03C234.702 166.79 235.485 169.735 237.052 171.866C238.619 173.934 240.718 174.968 243.35 174.968ZM280.164 187L262.586 138.966H276.78L286.274 165.756C286.65 166.696 287.089 168.2 287.59 170.268C288.091 168.2 288.53 166.696 288.906 165.756L298.306 138.966H312.5L294.922 187H280.164ZM319.649 205.236L326.887 186.436L308.745 138.966H322.845L332.621 164.628C333.311 166.508 333.812 168.012 334.125 169.14C334.439 168.012 334.94 166.508 335.629 164.628L345.311 138.966H359.317L333.749 205.236H319.649Z" fill="#004D11"/>
<defs>
<filter id="filter0_d" x="0" y="0" width="397" height="397" filterUnits="userSpaceOnUse" color-interpolation-filters="sRGB">
<feFlood flood-opacity="0" result="BackgroundImageFix"/>
<feColorMatrix in="SourceAlpha" type="matrix" values="0 0 0 0 0 0 0 0 0 0 0 0 0 0 0 0 0 0 127 0"/>
<feOffset dx="20" dy="20"/>
<feColorMatrix type="matrix" values="0 0 0 0 1 0 0 0 0 1 0 0 0 0 1 0 0 0 0.25 0"/>
<feBlend mode="normal" in2="BackgroundImageFix" result="effect1_dropShadow"/>
<feBlend mode="normal" in="SourceGraphic" in2="effect1_dropShadow" result="shape"/>
</filter>
</defs>
</svg>
