<svg width="391" height="387" viewBox="0 0 391 387" fill="none" xmlns="http://www.w3.org/2000/svg">
<g filter="url(#filter0_d)">
<g filter="url(#filter1_d)">
<rect x="4" width="377" height="377" fill="white"/>
</g>
<path d="M58.216 138.966H71.846V178.634C71.846 182.394 71.6893 185.496 71.376 187.94C71.1253 190.447 70.53 192.828 69.59 195.084C68.7127 197.403 67.428 199.22 65.736 200.536C64.1067 201.915 61.9133 203.043 59.156 203.92C56.4613 204.86 53.14 205.487 49.192 205.8L41.39 194.144C48.0953 193.58 52.5447 192.797 54.738 191.794C56.994 190.791 58.1533 188.567 58.216 185.12C56.0853 187.125 52.8893 188.128 48.628 188.128C42.5493 188.128 37.6927 185.966 34.058 181.642C30.486 177.318 28.7 171.083 28.7 162.936C28.7 155.291 30.5173 149.212 34.152 144.7C37.8493 140.125 42.6747 137.838 48.628 137.838C52.764 137.838 55.96 138.903 58.216 141.034V138.966ZM58.216 172.054V154.1C58.1533 154.037 57.9027 153.818 57.464 153.442C57.088 153.003 56.7433 152.69 56.43 152.502C56.1793 152.314 55.772 152.095 55.208 151.844C54.644 151.531 53.986 151.311 53.234 151.186C52.482 151.061 51.636 150.998 50.696 150.998C48.064 150.998 45.996 152.032 44.492 154.1C43.0507 156.168 42.33 159.113 42.33 162.936C42.33 170.957 45.1187 174.968 50.696 174.968C54.0173 174.968 56.524 173.997 58.216 172.054ZM97.9765 188.128C90.8952 188.128 85.3179 185.903 81.2445 181.454C77.1712 177.005 75.1345 170.832 75.1345 162.936C75.1345 155.228 77.1712 149.118 81.2445 144.606C85.3805 140.094 90.9579 137.838 97.9765 137.838C104.369 137.838 109.57 139.781 113.581 143.666C117.591 147.551 119.597 153.191 119.597 160.586C119.597 163.657 119.471 166.007 119.221 167.636H88.4825C88.6079 170.644 89.5479 172.9 91.3025 174.404C93.0572 175.845 95.2819 176.566 97.9765 176.566C102.363 176.566 105.967 174.874 108.787 171.49L116.683 179.386C111.857 185.214 105.622 188.128 97.9765 188.128ZM88.5765 157.39H106.531C105.841 152.063 102.802 149.4 97.4125 149.4C94.9685 149.4 92.9632 150.121 91.3965 151.562C89.8299 152.941 88.8899 154.883 88.5765 157.39ZM136.651 188.128C128.567 188.128 124.525 183.741 124.525 174.968V150.904H117.945V138.966H124.525V125.618L138.061 119.132V138.966H148.495V150.904H138.061V173.652C138.061 174.529 138.312 175.219 138.813 175.72C139.377 176.159 140.035 176.378 140.787 176.378C143.544 176.378 146.302 175.751 149.059 174.498L147.555 185.966C144.61 187.407 140.975 188.128 136.651 188.128ZM178.334 138.966H191.964V178.634C191.964 182.394 191.807 185.496 191.494 187.94C191.243 190.447 190.648 192.828 189.708 195.084C188.831 197.403 187.546 199.22 185.854 200.536C184.225 201.915 182.031 203.043 179.274 203.92C176.579 204.86 173.258 205.487 169.31 205.8L161.508 194.144C168.213 193.58 172.663 192.797 174.856 191.794C177.112 190.791 178.271 188.567 178.334 185.12C176.203 187.125 173.007 188.128 168.746 188.128C162.667 188.128 157.811 185.966 154.176 181.642C150.604 177.318 148.818 171.083 148.818 162.936C148.818 155.291 150.635 149.212 154.27 144.7C157.967 140.125 162.793 137.838 168.746 137.838C172.882 137.838 176.078 138.903 178.334 141.034V138.966ZM178.334 172.054V154.1C178.271 154.037 178.021 153.818 177.582 153.442C177.206 153.003 176.861 152.69 176.548 152.502C176.297 152.314 175.89 152.095 175.326 151.844C174.762 151.531 174.104 151.311 173.352 151.186C172.6 151.061 171.754 150.998 170.814 150.998C168.182 150.998 166.114 152.032 164.61 154.1C163.169 156.168 162.448 159.113 162.448 162.936C162.448 170.957 165.237 174.968 170.814 174.968C174.135 174.968 176.642 173.997 178.334 172.054ZM197.603 187V138.966H211.233V143.29C211.859 142.037 212.987 140.815 214.617 139.624C216.246 138.433 218.157 137.838 220.351 137.838C224.111 137.838 227.275 139.185 229.845 141.88L228.059 154.288C225.427 152.095 222.575 150.998 219.505 150.998C213.99 150.998 211.233 154.319 211.233 160.962V187H197.603ZM247.35 188.128C240.457 188.128 235.005 185.903 230.994 181.454C227.046 177.005 225.072 170.863 225.072 163.03C225.072 155.259 227.077 149.118 231.088 144.606C235.099 140.094 240.519 137.838 247.35 137.838C254.118 137.838 259.476 140.094 263.424 144.606C267.435 149.118 269.44 155.259 269.44 163.03C269.44 170.863 267.466 177.005 263.518 181.454C259.57 185.903 254.181 188.128 247.35 188.128ZM247.35 174.968C250.045 174.968 252.113 173.934 253.554 171.866C255.058 169.735 255.81 166.79 255.81 163.03C255.81 159.27 255.058 156.325 253.554 154.194C252.113 152.063 250.045 150.998 247.35 150.998C244.718 150.998 242.619 152.063 241.052 154.194C239.485 156.325 238.702 159.27 238.702 163.03C238.702 166.79 239.485 169.735 241.052 171.866C242.619 173.934 244.718 174.968 247.35 174.968ZM284.164 187L266.586 138.966H280.78L290.274 165.756C290.65 166.696 291.089 168.2 291.59 170.268C292.091 168.2 292.53 166.696 292.906 165.756L302.306 138.966H316.5L298.922 187H284.164ZM323.649 205.236L330.887 186.436L312.745 138.966H326.845L336.621 164.628C337.311 166.508 337.812 168.012 338.125 169.14C338.439 168.012 338.94 166.508 339.629 164.628L349.311 138.966H363.317L337.749 205.236H323.649Z" fill="#004D11" fill-opacity="0.69"/>
</g>
<defs>
<filter id="filter0_d" x="0" y="0" width="385" height="385" filterUnits="userSpaceOnUse" color-interpolation-filters="sRGB">
<feFlood flood-opacity="0" result="BackgroundImageFix"/>
<feColorMatrix in="SourceAlpha" type="matrix" values="0 0 0 0 0 0 0 0 0 0 0 0 0 0 0 0 0 0 127 0"/>
<feOffset dy="4"/>
<feGaussianBlur stdDeviation="2"/>
<feColorMatrix type="matrix" values="0 0 0 0 0 0 0 0 0 0 0 0 0 0 0 0 0 0 0.25 0"/>
<feBlend mode="normal" in2="BackgroundImageFix" result="effect1_dropShadow"/>
<feBlend mode="normal" in="SourceGraphic" in2="effect1_dropShadow" result="shape"/>
</filter>
<filter id="filter1_d" x="4" y="0" width="387" height="387" filterUnits="userSpaceOnUse" color-interpolation-filters="sRGB">
<feFlood flood-opacity="0" result="BackgroundImageFix"/>
<feColorMatrix in="SourceAlpha" type="matrix" values="0 0 0 0 0 0 0 0 0 0 0 0 0 0 0 0 0 0 127 0"/>
<feOffset dx="10" dy="10"/>
<feColorMatrix type="matrix" values="0 0 0 0 1 0 0 0 0 1 0 0 0 0 1 0 0 0 0.25 0"/>
<feBlend mode="normal" in2="BackgroundImageFix" result="effect1_dropShadow"/>
<feBlend mode="normal" in="SourceGraphic" in2="effect1_dropShadow" result="shape"/>
</filter>
</defs>
</svg>
