<svg width="715" height="249" viewBox="0 0 715 249" fill="none" xmlns="http://www.w3.org/2000/svg">
<g style="mix-blend-mode:darken">
<path d="M0.802917 245V15.1348H49.5432V204.75H142.779V245H0.802917ZM152.904 23.7822C152.904 8.16439 161.604 0.355469 179.004 0.355469C196.403 0.355469 205.103 8.16439 205.103 23.7822C205.103 31.2243 202.902 37.0417 198.5 41.2344C194.202 45.3223 187.703 47.3662 179.004 47.3662C161.604 47.3662 152.904 39.5049 152.904 23.7822ZM202.902 245H154.948V69.2207H202.902V245ZM391.479 245H343.525V142.331C343.525 129.648 341.272 120.162 336.765 113.873C332.257 107.479 325.077 104.282 315.225 104.282C301.808 104.282 292.112 108.789 286.138 117.804C280.163 126.713 277.176 141.545 277.176 162.299V245H229.222V69.2207H265.855L272.302 91.7041H274.975C280.32 83.2139 287.658 76.82 296.986 72.5225C306.42 68.1201 317.111 65.9189 329.061 65.9189C349.5 65.9189 365.013 71.4743 375.6 82.585C386.186 93.5908 391.479 109.523 391.479 130.382V245ZM462.766 149.406L483.677 122.678L532.889 69.2207H586.975L517.166 145.476L591.22 245H535.876L485.249 173.776L464.653 190.285V245H416.699V0.355469H464.653V109.471L462.137 149.406H462.766ZM714.863 192.801C714.863 210.829 708.574 224.561 695.996 233.994C683.523 243.428 664.813 248.145 639.866 248.145C627.078 248.145 616.177 247.254 607.163 245.472C598.149 243.795 589.711 241.279 581.849 237.925V198.304C590.759 202.496 600.769 206.008 611.88 208.838C623.095 211.668 632.948 213.083 641.438 213.083C658.838 213.083 667.538 208.052 667.538 197.989C667.538 194.216 666.385 191.176 664.079 188.87C661.773 186.459 657.79 183.786 652.13 180.852C646.469 177.812 638.923 174.3 629.489 170.317C615.968 164.657 606.01 159.416 599.616 154.595C593.327 149.773 588.715 144.27 585.78 138.086C582.95 131.797 581.535 124.093 581.535 114.974C581.535 99.3558 587.562 87.3018 599.616 78.8115C611.775 70.2165 628.965 65.9189 651.186 65.9189C672.359 65.9189 692.956 70.5309 712.976 79.7549L698.511 114.345C689.707 110.571 681.479 107.479 673.827 105.068C666.175 102.658 658.366 101.452 650.4 101.452C636.25 101.452 629.175 105.278 629.175 112.93C629.175 117.227 631.428 120.948 635.935 124.093C640.547 127.237 650.557 131.902 665.966 138.086C679.697 143.641 689.759 148.83 696.153 153.651C702.547 158.473 707.264 164.028 710.303 170.317C713.343 176.606 714.863 184.101 714.863 192.801Z" fill="#AFACF2" fill-opacity="0.07"/>
</g>
</svg>
