<svg width="59" height="16" viewBox="0 0 59 16" fill="none" xmlns="http://www.w3.org/2000/svg">
<mask id="path-1-outside-1" maskUnits="userSpaceOnUse" x="0.868" y="0.283997" width="59" height="16" fill="black">
<rect fill="white" x="0.868" y="0.283997" width="59" height="16"/>
<path d="M4.262 4.294C4.49533 3.93 4.81733 3.636 5.228 3.412C5.63867 3.188 6.11933 3.076 6.67 3.076C7.314 3.076 7.89733 3.23933 8.42 3.566C8.94267 3.89266 9.35333 4.35933 9.652 4.966C9.96 5.57266 10.114 6.27733 10.114 7.08C10.114 7.88266 9.96 8.592 9.652 9.208C9.35333 9.81466 8.94267 10.286 8.42 10.622C7.89733 10.9487 7.314 11.112 6.67 11.112C6.12867 11.112 5.648 11 5.228 10.776C4.81733 10.552 4.49533 10.2627 4.262 9.908V14.724H1.868V3.188H4.262V4.294ZM7.678 7.08C7.678 6.48266 7.51 6.016 7.174 5.68C6.84733 5.33466 6.44133 5.162 5.956 5.162C5.48 5.162 5.074 5.33466 4.738 5.68C4.41133 6.02533 4.248 6.49666 4.248 7.094C4.248 7.69133 4.41133 8.16266 4.738 8.508C5.074 8.85333 5.48 9.026 5.956 9.026C6.432 9.026 6.838 8.85333 7.174 8.508C7.51 8.15333 7.678 7.67733 7.678 7.08ZM10.964 7.08C10.964 6.27733 11.1133 5.57266 11.412 4.966C11.72 4.35933 12.1353 3.89266 12.658 3.566C13.1806 3.23933 13.764 3.076 14.408 3.076C14.9586 3.076 15.4393 3.188 15.85 3.412C16.27 3.636 16.592 3.93 16.816 4.294V3.188H19.21V11H16.816V9.894C16.5826 10.258 16.256 10.552 15.836 10.776C15.4253 11 14.9446 11.112 14.394 11.112C13.7593 11.112 13.1806 10.9487 12.658 10.622C12.1353 10.286 11.72 9.81466 11.412 9.208C11.1133 8.592 10.964 7.88266 10.964 7.08ZM16.816 7.094C16.816 6.49666 16.648 6.02533 16.312 5.68C15.9853 5.33466 15.584 5.162 15.108 5.162C14.632 5.162 14.226 5.33466 13.89 5.68C13.5633 6.016 13.4 6.48266 13.4 7.08C13.4 7.67733 13.5633 8.15333 13.89 8.508C14.226 8.85333 14.632 9.026 15.108 9.026C15.584 9.026 15.9853 8.85333 16.312 8.508C16.648 8.16266 16.816 7.69133 16.816 7.094ZM24.1899 11.112C23.5086 11.112 22.9019 10.9953 22.3699 10.762C21.8379 10.5287 21.4179 10.2113 21.1099 9.81C20.8019 9.39933 20.6292 8.942 20.5919 8.438H22.9579C22.9859 8.70866 23.1119 8.928 23.3359 9.096C23.5599 9.264 23.8352 9.348 24.1619 9.348C24.4606 9.348 24.6892 9.292 24.8479 9.18C25.0159 9.05866 25.0999 8.90466 25.0999 8.718C25.0999 8.494 24.9832 8.33066 24.7499 8.228C24.5166 8.116 24.1386 7.99466 23.6159 7.864C23.0559 7.73333 22.5892 7.598 22.2159 7.458C21.8426 7.30866 21.5206 7.08 21.2499 6.772C20.9792 6.45466 20.8439 6.03 20.8439 5.498C20.8439 5.05 20.9652 4.644 21.2079 4.28C21.4599 3.90666 21.8239 3.61266 22.2999 3.398C22.7852 3.18333 23.3592 3.076 24.0219 3.076C25.0019 3.076 25.7719 3.31866 26.3319 3.804C26.9012 4.28933 27.2279 4.93333 27.3119 5.736H25.0999C25.0626 5.46533 24.9412 5.25066 24.7359 5.092C24.5399 4.93333 24.2786 4.854 23.9519 4.854C23.6719 4.854 23.4572 4.91 23.3079 5.022C23.1586 5.12466 23.0839 5.26933 23.0839 5.456C23.0839 5.68 23.2006 5.848 23.4339 5.96C23.6766 6.072 24.0499 6.184 24.5539 6.296C25.1326 6.44533 25.6039 6.59466 25.9679 6.744C26.3319 6.884 26.6492 7.11733 26.9199 7.444C27.1999 7.76133 27.3446 8.19066 27.3539 8.732C27.3539 9.18933 27.2232 9.6 26.9619 9.964C26.7099 10.3187 26.3412 10.5987 25.8559 10.804C25.3799 11.0093 24.8246 11.112 24.1899 11.112ZM33.2425 8.97V11H32.0245C31.1565 11 30.4799 10.79 29.9945 10.37C29.5092 9.94066 29.2665 9.24533 29.2665 8.284V5.176H28.3145V3.188H29.2665V1.284H31.6605V3.188H33.2285V5.176H31.6605V8.312C31.6605 8.54533 31.7165 8.71333 31.8285 8.816C31.9405 8.91866 32.1272 8.97 32.3885 8.97H33.2425ZM42.01 6.968C42.01 7.192 41.996 7.42533 41.968 7.668H36.55C36.5874 8.15333 36.7414 8.52666 37.012 8.788C37.292 9.04 37.6327 9.166 38.034 9.166C38.6314 9.166 39.0467 8.914 39.28 8.41H41.828C41.6974 8.92333 41.4594 9.38533 41.114 9.796C40.778 10.2067 40.3534 10.5287 39.84 10.762C39.3267 10.9953 38.7527 11.112 38.118 11.112C37.3527 11.112 36.6714 10.9487 36.074 10.622C35.4767 10.2953 35.01 9.82866 34.674 9.222C34.338 8.61533 34.17 7.906 34.17 7.094C34.17 6.282 34.3334 5.57266 34.66 4.966C34.996 4.35933 35.4627 3.89266 36.06 3.566C36.6574 3.23933 37.3434 3.076 38.118 3.076C38.874 3.076 39.546 3.23466 40.134 3.552C40.722 3.86933 41.1794 4.322 41.506 4.91C41.842 5.498 42.01 6.184 42.01 6.968ZM39.56 6.338C39.56 5.92733 39.42 5.60066 39.14 5.358C38.86 5.11533 38.51 4.994 38.09 4.994C37.6887 4.994 37.348 5.11066 37.068 5.344C36.7974 5.57733 36.6294 5.90866 36.564 6.338H39.56ZM45.737 4.49C46.017 4.06066 46.367 3.72466 46.787 3.482C47.207 3.23 47.6737 3.104 48.187 3.104V5.638H47.529C46.9317 5.638 46.4837 5.76866 46.185 6.03C45.8863 6.282 45.737 6.73 45.737 7.374V11H43.343V3.188H45.737V4.49ZM57.3813 3.188L52.4813 14.71H49.9053L51.6973 10.734L48.5193 3.188H51.1933L52.9993 8.074L54.7913 3.188H57.3813Z"/>
</mask>
<path d="M4.262 4.294C4.49533 3.93 4.81733 3.636 5.228 3.412C5.63867 3.188 6.11933 3.076 6.67 3.076C7.314 3.076 7.89733 3.23933 8.42 3.566C8.94267 3.89266 9.35333 4.35933 9.652 4.966C9.96 5.57266 10.114 6.27733 10.114 7.08C10.114 7.88266 9.96 8.592 9.652 9.208C9.35333 9.81466 8.94267 10.286 8.42 10.622C7.89733 10.9487 7.314 11.112 6.67 11.112C6.12867 11.112 5.648 11 5.228 10.776C4.81733 10.552 4.49533 10.2627 4.262 9.908V14.724H1.868V3.188H4.262V4.294ZM7.678 7.08C7.678 6.48266 7.51 6.016 7.174 5.68C6.84733 5.33466 6.44133 5.162 5.956 5.162C5.48 5.162 5.074 5.33466 4.738 5.68C4.41133 6.02533 4.248 6.49666 4.248 7.094C4.248 7.69133 4.41133 8.16266 4.738 8.508C5.074 8.85333 5.48 9.026 5.956 9.026C6.432 9.026 6.838 8.85333 7.174 8.508C7.51 8.15333 7.678 7.67733 7.678 7.08ZM10.964 7.08C10.964 6.27733 11.1133 5.57266 11.412 4.966C11.72 4.35933 12.1353 3.89266 12.658 3.566C13.1806 3.23933 13.764 3.076 14.408 3.076C14.9586 3.076 15.4393 3.188 15.85 3.412C16.27 3.636 16.592 3.93 16.816 4.294V3.188H19.21V11H16.816V9.894C16.5826 10.258 16.256 10.552 15.836 10.776C15.4253 11 14.9446 11.112 14.394 11.112C13.7593 11.112 13.1806 10.9487 12.658 10.622C12.1353 10.286 11.72 9.81466 11.412 9.208C11.1133 8.592 10.964 7.88266 10.964 7.08ZM16.816 7.094C16.816 6.49666 16.648 6.02533 16.312 5.68C15.9853 5.33466 15.584 5.162 15.108 5.162C14.632 5.162 14.226 5.33466 13.89 5.68C13.5633 6.016 13.4 6.48266 13.4 7.08C13.4 7.67733 13.5633 8.15333 13.89 8.508C14.226 8.85333 14.632 9.026 15.108 9.026C15.584 9.026 15.9853 8.85333 16.312 8.508C16.648 8.16266 16.816 7.69133 16.816 7.094ZM24.1899 11.112C23.5086 11.112 22.9019 10.9953 22.3699 10.762C21.8379 10.5287 21.4179 10.2113 21.1099 9.81C20.8019 9.39933 20.6292 8.942 20.5919 8.438H22.9579C22.9859 8.70866 23.1119 8.928 23.3359 9.096C23.5599 9.264 23.8352 9.348 24.1619 9.348C24.4606 9.348 24.6892 9.292 24.8479 9.18C25.0159 9.05866 25.0999 8.90466 25.0999 8.718C25.0999 8.494 24.9832 8.33066 24.7499 8.228C24.5166 8.116 24.1386 7.99466 23.6159 7.864C23.0559 7.73333 22.5892 7.598 22.2159 7.458C21.8426 7.30866 21.5206 7.08 21.2499 6.772C20.9792 6.45466 20.8439 6.03 20.8439 5.498C20.8439 5.05 20.9652 4.644 21.2079 4.28C21.4599 3.90666 21.8239 3.61266 22.2999 3.398C22.7852 3.18333 23.3592 3.076 24.0219 3.076C25.0019 3.076 25.7719 3.31866 26.3319 3.804C26.9012 4.28933 27.2279 4.93333 27.3119 5.736H25.0999C25.0626 5.46533 24.9412 5.25066 24.7359 5.092C24.5399 4.93333 24.2786 4.854 23.9519 4.854C23.6719 4.854 23.4572 4.91 23.3079 5.022C23.1586 5.12466 23.0839 5.26933 23.0839 5.456C23.0839 5.68 23.2006 5.848 23.4339 5.96C23.6766 6.072 24.0499 6.184 24.5539 6.296C25.1326 6.44533 25.6039 6.59466 25.9679 6.744C26.3319 6.884 26.6492 7.11733 26.9199 7.444C27.1999 7.76133 27.3446 8.19066 27.3539 8.732C27.3539 9.18933 27.2232 9.6 26.9619 9.964C26.7099 10.3187 26.3412 10.5987 25.8559 10.804C25.3799 11.0093 24.8246 11.112 24.1899 11.112ZM33.2425 8.97V11H32.0245C31.1565 11 30.4799 10.79 29.9945 10.37C29.5092 9.94066 29.2665 9.24533 29.2665 8.284V5.176H28.3145V3.188H29.2665V1.284H31.6605V3.188H33.2285V5.176H31.6605V8.312C31.6605 8.54533 31.7165 8.71333 31.8285 8.816C31.9405 8.91866 32.1272 8.97 32.3885 8.97H33.2425ZM42.01 6.968C42.01 7.192 41.996 7.42533 41.968 7.668H36.55C36.5874 8.15333 36.7414 8.52666 37.012 8.788C37.292 9.04 37.6327 9.166 38.034 9.166C38.6314 9.166 39.0467 8.914 39.28 8.41H41.828C41.6974 8.92333 41.4594 9.38533 41.114 9.796C40.778 10.2067 40.3534 10.5287 39.84 10.762C39.3267 10.9953 38.7527 11.112 38.118 11.112C37.3527 11.112 36.6714 10.9487 36.074 10.622C35.4767 10.2953 35.01 9.82866 34.674 9.222C34.338 8.61533 34.17 7.906 34.17 7.094C34.17 6.282 34.3334 5.57266 34.66 4.966C34.996 4.35933 35.4627 3.89266 36.06 3.566C36.6574 3.23933 37.3434 3.076 38.118 3.076C38.874 3.076 39.546 3.23466 40.134 3.552C40.722 3.86933 41.1794 4.322 41.506 4.91C41.842 5.498 42.01 6.184 42.01 6.968ZM39.56 6.338C39.56 5.92733 39.42 5.60066 39.14 5.358C38.86 5.11533 38.51 4.994 38.09 4.994C37.6887 4.994 37.348 5.11066 37.068 5.344C36.7974 5.57733 36.6294 5.90866 36.564 6.338H39.56ZM45.737 4.49C46.017 4.06066 46.367 3.72466 46.787 3.482C47.207 3.23 47.6737 3.104 48.187 3.104V5.638H47.529C46.9317 5.638 46.4837 5.76866 46.185 6.03C45.8863 6.282 45.737 6.73 45.737 7.374V11H43.343V3.188H45.737V4.49ZM57.3813 3.188L52.4813 14.71H49.9053L51.6973 10.734L48.5193 3.188H51.1933L52.9993 8.074L54.7913 3.188H57.3813Z" stroke="white" stroke-width="2" mask="url(#path-1-outside-1)"/>
</svg>
