<svg width="1093" height="323" viewBox="0 0 1093 323" fill="none" xmlns="http://www.w3.org/2000/svg">
<g style="mix-blend-mode:darken">
<path d="M49.6198 123.307H65.6569C80.6458 123.307 91.8613 120.372 99.3033 114.502C106.745 108.527 110.466 99.8799 110.466 88.5596C110.466 77.1344 107.322 68.6966 101.033 63.2461C94.8486 57.7956 85.1005 55.0703 71.7887 55.0703H49.6198V123.307ZM159.678 86.8301C159.678 111.567 151.922 130.487 136.409 143.589C121.001 156.691 99.0413 163.242 70.5309 163.242H49.6198V245H0.879517V15.1348H74.3043C102.186 15.1348 123.359 21.1618 137.824 33.2158C152.394 45.165 159.678 63.0365 159.678 86.8301ZM273.259 65.9189C279.757 65.9189 285.156 66.3906 289.453 67.334L285.837 112.301C281.959 111.253 277.242 110.729 271.687 110.729C256.383 110.729 244.434 114.659 235.839 122.521C227.349 130.382 223.104 141.388 223.104 155.538V245H175.149V69.2207H211.469L218.544 98.7793H220.902C226.353 88.9264 233.69 81.0127 242.914 75.0381C252.243 68.9587 262.358 65.9189 273.259 65.9189ZM335.426 156.796C335.426 174.196 338.256 187.35 343.916 196.26C349.681 205.169 359.01 209.624 371.903 209.624C384.691 209.624 393.862 205.222 399.417 196.417C405.078 187.507 407.908 174.3 407.908 156.796C407.908 139.396 405.078 126.346 399.417 117.646C393.757 108.947 384.481 104.597 371.588 104.597C358.801 104.597 349.577 108.947 343.916 117.646C338.256 126.242 335.426 139.291 335.426 156.796ZM456.962 156.796C456.962 185.411 449.415 207.79 434.322 223.932C419.228 240.074 398.212 248.145 371.274 248.145C354.398 248.145 339.514 244.476 326.622 237.139C313.729 229.697 303.824 219.058 296.906 205.222C289.988 191.386 286.529 175.244 286.529 156.796C286.529 128.076 294.023 105.75 309.012 89.8174C324.001 73.8851 345.069 65.9189 372.217 65.9189C389.093 65.9189 403.977 69.5876 416.87 76.9248C429.762 84.262 439.667 94.7962 446.585 108.527C453.503 122.258 456.962 138.348 456.962 156.796ZM458.283 322.355C446.019 322.355 435.485 321.045 426.68 318.425V280.69C434.018 282.682 441.512 283.678 449.164 283.678C457.235 283.678 463.105 281.424 466.773 276.917C470.547 272.41 472.433 265.754 472.433 256.949V69.2207H520.387V264.024C520.387 282.682 514.989 297.042 504.193 307.104C493.397 317.272 478.094 322.355 458.283 322.355ZM470.389 23.7822C470.389 8.16439 479.089 0.355469 496.489 0.355469C513.889 0.355469 522.589 8.16439 522.589 23.7822C522.589 31.2243 520.387 37.0417 515.985 41.2344C511.688 45.3223 505.189 47.3662 496.489 47.3662C479.089 47.3662 470.389 39.5049 470.389 23.7822ZM619.503 100.037C609.336 100.037 601.37 103.286 595.605 109.785C589.84 116.179 586.538 125.298 585.699 137.143H652.992C652.783 125.298 649.691 116.179 643.716 109.785C637.741 103.286 629.67 100.037 619.503 100.037ZM626.264 248.145C597.963 248.145 575.847 240.336 559.914 224.718C543.982 209.1 536.016 186.983 536.016 158.368C536.016 128.914 543.353 106.169 558.028 90.1318C572.807 73.9899 593.194 65.9189 619.189 65.9189C644.031 65.9189 663.369 72.9941 677.205 87.1445C691.041 101.295 697.959 120.843 697.959 145.79V169.06H584.599C585.123 182.686 589.158 193.325 596.705 200.977C604.252 208.628 614.839 212.454 628.465 212.454C639.052 212.454 649.062 211.354 658.495 209.152C667.929 206.951 677.782 203.44 688.054 198.618V235.724C679.669 239.916 670.707 243.008 661.168 245C651.63 247.096 639.995 248.145 626.264 248.145ZM784.182 248.145C729.467 248.145 702.11 218.114 702.11 158.054C702.11 128.181 709.552 105.383 724.436 89.6602C739.32 73.8327 760.651 65.9189 788.427 65.9189C808.762 65.9189 827 69.902 843.142 77.8682L828.992 114.974C821.445 111.934 814.422 109.471 807.923 107.584C801.425 105.592 794.926 104.597 788.427 104.597C763.481 104.597 751.007 122.311 751.007 157.739C751.007 192.119 763.481 209.31 788.427 209.31C797.651 209.31 806.194 208.104 814.055 205.693C821.917 203.178 829.778 199.299 837.639 194.059V235.095C829.883 240.021 822.021 243.428 814.055 245.314C806.194 247.201 796.236 248.145 784.182 248.145ZM928.422 209.938C936.807 209.938 946.87 208.104 958.609 204.436V240.126C946.66 245.472 931.986 248.145 914.586 248.145C895.404 248.145 881.411 243.323 872.606 233.68C863.907 223.932 859.557 209.362 859.557 189.971V105.226H836.602V84.9434L863.016 68.9062L876.852 31.8008H907.511V69.2207H956.723V105.226H907.511V189.971C907.511 196.784 909.397 201.815 913.171 205.064C917.049 208.314 922.133 209.938 928.422 209.938ZM1092.79 192.801C1092.79 210.829 1086.5 224.561 1073.92 233.994C1061.45 243.428 1042.74 248.145 1017.79 248.145C1005 248.145 994.101 247.254 985.086 245.472C976.072 243.795 967.634 241.279 959.773 237.925V198.304C968.682 202.496 978.693 206.008 989.803 208.838C1001.02 211.668 1010.87 213.083 1019.36 213.083C1036.76 213.083 1045.46 208.052 1045.46 197.989C1045.46 194.216 1044.31 191.176 1042 188.87C1039.7 186.459 1035.71 183.786 1030.05 180.852C1024.39 177.812 1016.85 174.3 1007.41 170.317C993.891 164.657 983.933 159.416 977.54 154.595C971.25 149.773 966.639 144.27 963.704 138.086C960.874 131.797 959.458 124.093 959.458 114.974C959.458 99.3558 965.486 87.3018 977.54 78.8115C989.698 70.2165 1006.89 65.9189 1029.11 65.9189C1050.28 65.9189 1070.88 70.5309 1090.9 79.7549L1076.44 114.345C1067.63 110.571 1059.4 107.479 1051.75 105.068C1044.1 102.658 1036.29 101.452 1028.32 101.452C1014.17 101.452 1007.1 105.278 1007.1 112.93C1007.1 117.227 1009.35 120.948 1013.86 124.093C1018.47 127.237 1028.48 131.902 1043.89 138.086C1057.62 143.641 1067.68 148.83 1074.08 153.651C1080.47 158.473 1085.19 164.028 1088.23 170.317C1091.27 176.606 1092.79 184.101 1092.79 192.801Z" fill="#F9B1AA" fill-opacity="0.07"/>
</g>
</svg>
