<svg width="397" height="397" viewBox="0 0 397 397" fill="none" xmlns="http://www.w3.org/2000/svg">
<g filter="url(#filter0_d)">
<rect width="377" height="377" fill="white"/>
</g>
<path d="M148.362 235.01L112.464 169.796L131.988 165.367L145.729 192.397C146.076 193.084 146.766 194.65 147.799 197.095C148.833 199.54 149.599 201.233 150.1 202.172C150.137 201.493 150.13 199.773 150.077 197.009C150.024 194.246 150.031 192.378 150.098 191.406L150.966 161.062L168.715 157.035L182.455 184.065C182.803 184.752 183.538 186.308 184.663 188.732C185.787 191.157 186.599 192.839 187.099 193.778C187.096 192.918 186.987 191.172 186.773 188.541C186.629 185.798 186.601 183.986 186.688 183.105L187.829 152.699L207.353 148.27L202.974 222.621L185.498 226.585L170.94 196.583C170.878 196.31 170.152 194.8 168.763 192.052C167.465 189.284 166.56 187.192 166.048 185.777C166.113 186.911 166.15 188.338 166.158 190.059C166.145 191.689 166.121 193.273 166.088 194.812C166.054 196.351 166.033 197.313 166.024 197.698L165.838 231.046L148.362 235.01ZM226.089 137.846L243.248 213.484L222.496 218.192L205.337 142.554L177.894 148.78L173.372 128.846L249.01 111.687L253.532 131.621L226.089 137.846Z" fill="#565656"/>
<defs>
<filter id="filter0_d" x="0" y="0" width="397" height="397" filterUnits="userSpaceOnUse" color-interpolation-filters="sRGB">
<feFlood flood-opacity="0" result="BackgroundImageFix"/>
<feColorMatrix in="SourceAlpha" type="matrix" values="0 0 0 0 0 0 0 0 0 0 0 0 0 0 0 0 0 0 127 0"/>
<feOffset dx="20" dy="20"/>
<feColorMatrix type="matrix" values="0 0 0 0 1 0 0 0 0 1 0 0 0 0 1 0 0 0 0.25 0"/>
<feBlend mode="normal" in2="BackgroundImageFix" result="effect1_dropShadow"/>
<feBlend mode="normal" in="SourceGraphic" in2="effect1_dropShadow" result="shape"/>
</filter>
</defs>
</svg>
